{"title":"Bumm Bumm Bole (2010) 1CD SCam Rip Xvid MP3 [Dare DEvils]","uid":5564750,"size":728844574,"categoryP":"video","categoryS":"movies","magnet":"?xt=urn:btih:3f79b0b7bc268c0bb4bcd7f365846e70e998ecc1&amp;dn=Bumm+Bumm+Bole+%282010%29+1CD+SCam+Rip+Xvid+MP3+%5BDare+DEvils%5D&amp;tr=udp%3A%2F%2Ftracker.openbittorrent.com%3A80&amp;tr=udp%3A%2F%2Fopen.demonii.com%3A1337&amp;tr=udp%3A%2F%2Ftracker.coppersurfer.tk%3A6969&amp;tr=udp%3A%2F%2Fexodus.desync.com%3A6969","seeders":1,"leechers":0,"uploader":"luvwithromio","files":-1,"time":1273940704,"description":"Format                           : AVI\nFormat/Info                      : Audio Video Interleave\nFile size                        : 695 MiB\nDuration                         : 1h 48mn\nOverall bit rate                 : 894 Kbps\n\nVideo\nID                               : 0\nFormat                           : MPEG-4 Visual\nFormat profile                   : Advanced Simple@L5\nFormat settings, BVOP            : Yes\nFormat settings, QPel            : No\nFormat settings, GMC             : No warppoints\nFormat settings, Matrix          : Default (MPEG)\nCodec ID                         : XVID\nCodec ID/Hint                    : XviD\nDuration                         : 1h 48mn\nBit rate                         : 753 Kbps\nWidth                            : 640 pixels\nHeight                           : 272 pixels\nDisplay aspect ratio             : 2.35:1\nFrame rate                       : 23.976 fps\nResolution                       : 8 bits\nColorimetry                      : 4:2:0\nScan type                        : Progressive\nBits/(Pixel*Frame)               : 0.180\nStream size                      : 586 MiB (84%)\nWriting library                  : XviD 1.1.2 (UTC 2006-11-01)\n\nAudio\nID                               : 1\nFormat                           : MPEG Audio\nFormat version                   : Version 1\nFormat profile                   : Layer 3\nCodec ID                         : 55\nCodec ID/Hint                    : MP3\nDuration                         : 1h 48mn\nBit rate mode                    : Constant\nBit rate                         : 128 Kbps\nChannel(s)                       : 2 channels\nSampling rate                    : 48.0 KHz\nStream size                      : 99.5 MiB (14%)\nAlignment                        : Split accross interleaves\nInterleave, duration             : 24 ms (0.58 video frame)\nWriting library                  : LAME","torrent":{"xt":"urn:btih:3f79b0b7bc268c0bb4bcd7f365846e70e998ecc1","amp;dn":"Bumm+Bumm+Bole+%282010%29+1CD+SCam+Rip+Xvid+MP3+%5BDare+DEvils%5D","amp;tr":["udp%3A%2F%2Ftracker.openbittorrent.com%3A80","udp%3A%2F%2Fopen.demonii.com%3A1337","udp%3A%2F%2Ftracker.coppersurfer.tk%3A6969","udp%3A%2F%2Fexodus.desync.com%3A6969"],"infoHash":"3f79b0b7bc268c0bb4bcd7f365846e70e998ecc1","infoHashBuffer":{"type":"Buffer","data":[63,121,176,183,188,38,140,11,180,188,215,243,101,132,110,112,233,152,236,193]},"announce":[],"urlList":[]}}